<?xml version="1.0" encoding="UTF-8"?>
<svg id="Layer_1" data-name="Layer 1" xmlns="http://www.w3.org/2000/svg" viewBox="0 0 1024.08 1024.08">
  <defs>
    <style>
      .cls-1 {
        fill: #227dd9;
      }

      .cls-2 {
        fill: #217cd9;
      }

      .cls-3 {
        fill: #207bd7;
      }

      .cls-4 {
        fill: #fff;
      }

      .cls-5 {
        fill: #113962;
      }

      .cls-6 {
        fill: #4da6fe;
      }

      .cls-7 {
        fill: #4da6ff;
      }
    </style>
  </defs>
  <path class="cls-4" d="M0,1024.08V0h1024.08v1024.08H0ZM63.81,441.5c5.52-7.53,6.47-17.71,9.52-26.64,16.88-49.36,42.02-94.66,74.41-135.55,13.04-16.46,25.35-32.52,41.17-46.29,4.35-3.78,9.27-6.3,13.11-10.86,10.79-12.81,23.71-22.14,36.93-32.23,17.35-13.24,35.08-23.57,54.14-34.11,31.07-17.17,62.67-30.27,97.05-39.32,25.16-6.63,49.35-11.85,75.48-12.65,5.26-.16,11.36-1.07,15.43-3.42,6.62-3.81,9.56-9.98,7.56-16.54-1.77-5.79-7.45-10.52-14.52-9.95-17.86,1.43-35.4,2.88-53.11,6.68-21.59,4.64-42.37,9.16-63.31,16.21-65.38,22.01-103.43,46.54-157.31,88.13-23.28,17.97-42.37,38.37-61.52,60.4-23.47,27-43.76,55.35-58.44,88-2.84,6.31-6.29,11.55-10.8,16.63l-19.11,44.05c-3.04,7.01-2.46,14.3-5.93,21.59s-6.96,19.31.02,26.67c3.46,3.65,16.06,3.52,19.23-.8ZM508.56,191.89c52.08-.64,83.11,1.85,134.33,12.82,28.88,6.18,67,22.35,93.49,35.8,7.58,3.85,44.26,25.15,46.29,30.77.58,1.61-.99,2.88-1.54,4.98-6.08,23.46,7.17,49.93,31.4,56.85,8.77,2.51,19.86,1.09,28.35-.18,5.09-.76,7.76-3,11.64,1.96,27.64,35.28,51.37,73.77,62.88,117.37l16.13,61.12c1.67,6.33,13.36,5.69,17.91,2.99,6.11-3.61,8.41-10.14,6.88-17.75-5.77-28.82-13.79-57.1-25.03-84.46-7.35-17.89-16.41-34.34-25.79-50.93-2.96-5.24-7.92-8.38-9.83-14.53-4.04-13.01-19.78-24.2-25.84-35.24-2.35-4.28,1.73-8.36,3.25-12.31,5.23-13.53,2.85-29.34-5.51-40.95-13.14-18.25-36.63-26.33-57.16-17.03-5.39,2.44-9.8,7.26-15.44,3.23l-28.56-20.43c-34.78-24.89-97.94-45.21-140.68-53.76-23.73-4.75-47.2-6.69-71.26-8.36-16.04-1.12-31.36.16-47.56.33-39.29.41-77.56,8.99-115.35,20.9-23.13,7.29-44.08,15.09-65.4,27.03-28.2,15.79-55.34,33.79-79.63,55.46-18.26,16.29-34.08,34.27-49.7,52.92-13.02,15.54-23.21,32.48-33.65,49.68-6.87,11.33-11.45,23-17.28,34.82-7.47,15.16-13.62,30.7-16.94,47.17-.93,4.63.78,9.28,3.09,12.19,2.84,3.58,7.41,3.63,11.83,3.9,7.5.47,11.63-3.42,13.6-10.64,5.59-20.46,11.57-40.84,23.33-59.14,4.88-7.6,8.15-14.63,12.58-22.91,8.46-15.82,19.06-30.94,31.1-44.55,16.8-18.99,34.03-36.71,53.25-53.23,22.77-19.58,61.46-42.7,89.51-54.51s54.32-19.39,83.05-24.5c19.56-3.48,38.47-4.44,58.26-6.9ZM254.13,418.18c5.11,5.73,15.42,5.91,19.46.55l27.79-36.89c22.89-30.38,87.42-71.77,121.23-79.86l56.64-13.55c7.22-1.73,11.99-8.47,11.07-15.13s-5.49-13.75-13.24-12.85c-34.7,4.05-64.55,14.08-96.54,28.19-17.14,7.56-32.55,17.32-48.09,27.49-15.09,9.89-27.32,21.25-39.67,34.25-15.08,15.87-29.4,31.4-40.39,50.6-2.72,4.76-2.11,12.88,1.74,17.2ZM713.36,452.77c30,16.04,59.68,33.45,83.91,57.02l28.3,27.53c2.85,2.78,6.47,4.14,9.37,7.03,19.5,19.42,36.19,40.68,52.53,62.81,2.14,2.9,1.54,7.27-.49,10.03-13.89,18.81-26.97,37.9-44.13,53.82l-34.86,32.33c-2.55,2.36-3.48,5.41-2.47,8.67,2.76,8.93,37.65,10.46,46.76,10.7,4.73.12,9.48-2.21,12.62-5.67,32.5-35.73,53.21-58.23,79.62-99.96,3.08-4.86-.53-12.78-3.81-17.51-44.74-64.68-87.47-109.21-151.51-155.41-31.97-23.06-66.22-41.7-102.97-56-22.5-8.75-44.87-15.22-68.18-21.19-48.31-12.36-127.08-12.25-175.48,0-78.06,19.78-129.39,44.84-193.13,93.73-36.81,28.23-66.59,59.22-96.25,94.66-12.95,15.47-23.07,32.38-34.91,48.41-4.46,6.03-3.92,11.27.11,17.27,23.4,34.85,49.14,67.44,78.68,97.42,8.62,8.75,41.78,1.97,53.16-1.51,2.87-.88,5.11-3.57,5.54-5.67.5-2.44-.32-5.09-2.31-6.94l-35.31-32.86c-16.9-15.73-30.11-34.61-43.67-53.11-4.04-5.52-2.77-9.74,1.1-14.83,36.5-48.04,79.37-90.86,129.26-124.91,7.89-5.38,14.8-10.17,23.66-13l29.41-18.7c33.1-21.05,73.13-30.22,112.12-37.01,85.42-14.88,167.72,2.42,243.33,42.85ZM683.47,590.89c0-84.58-68.56-153.14-153.14-153.14s-153.14,68.56-153.14,153.14,68.56,153.14,153.14,153.14,153.14-68.56,153.14-153.14ZM751.03,758.2c24.78,5.5,70.22,28.32,89.3,20.26,10.59-4.47,15.46-19.42,23.32-26.74,1.63-1.52.39-4.34-.29-5.33-.61-.89-2.42-1.86-3.99-2.02l-26.06-2.58c-8.8-.87-16.46-2.86-24.75-6.11-22.35-8.77-44.97-16.19-69.11-18.85s-60.37.87-81.81,11l-65.78,31.1c-25.07,11.85-62.76,14.2-89.65,9.48-20.76-3.64-39.87-12.02-58.75-20.71-11.63-5.35-21.06-13.04-33.13-17.57-34.87-13.1-76.26-20.4-112.63-8.93l-62.7,19.77c-11.21,3.53-23.85,2.52-35.47,3.93-7.46.91,10.31,28.85,19.21,33.16,11.51,5.58,26.31,1.35,37.82-2.43l52.66-17.3c26.37-8.66,75.84,1.18,98.48,12.64l49.66,25.13c15.51,7.85,33.11,11.2,50.58,13.47,36.47,4.74,72.6-1.6,105.25-17.59,14.25-6.98,26.29-15.69,41.02-21.52,16.93-6.69,34.4-11.78,52.58-14.51,14.47-2.17,29.69-.97,44.24,2.25ZM695.1,828.69c15.22-1.05,30.06-4.63,44.31-.88l35.78,9.42c4.24,1.12,8.99,1.31,12.49-1.63,8.24-6.92,15.09-14.68,22.15-23.05-1.44-3.01-4.2-5.96-7.65-7.19-35.26-12.56-46.13-18.71-86.19-18.29-26.81.29-67.16,12.82-89.69,27.39-28.89,18.69-61.18,26.6-95.57,25.98-25.56-.46-50.09-3.46-73.3-14.69-14.63-7.09-27.78-15.82-42.94-21.99-31.09-12.65-79.9-24-111.21-12.86l-24.71,8.79c-1.43.51-34.17,5.51-24.72,16.57,5.88,6.88,12.11,13.42,19.06,19.28,4.09,3.45,9.5,2.78,14.28,1.5l34.09-9.09c25.66-6.84,71.99,6.78,95.5,19.17l37.06,19.55c35,18.46,117.66,18.41,153.96.13l50.99-25.69c11.52-5.8,23.41-8.68,36.32-12.43ZM739.89,871.44c1.83-1.13,2.17-4.33,1.32-5.42-5.84-7.47-70.31-6.05-81.05,7.59-24.13,9.79-46.72,21.44-71.57,29.75-36.13,12.08-87.13,9.82-122.36-2.05-23.73-7.99-44.74-20.25-67.38-30.32-12.57-5.59-23.89-9.78-38.07-9.37-5.9.17-42.14.58-41.74,5.55.08,1.01.28,3.37,1.59,4.24,8.85,5.91,16.94,12.38,26.6,17.44,28.16,14.75,56.13,28.52,85.22,41.37,22.76,10.05,45.05,16.31,69.8,19.81,46.34.25,71.14,2.74,114.95-15.21,27.3-11.18,53.17-23.44,79.38-36.79,15.39-7.84,28.8-17.62,43.3-26.6Z"/>
  <path class="cls-1" d="M713.36,452.77c-75.61-40.44-157.91-57.74-243.33-42.85-38.99,6.79-79.02,15.96-112.12,37.01l-29.41,18.7c-8.86,2.82-15.77,7.61-23.66,13-49.89,34.05-92.76,76.87-129.26,124.91-3.87,5.09-5.14,9.31-1.1,14.83,13.56,18.5,26.77,37.38,43.67,53.11l35.31,32.86c1.99,1.85,2.81,4.49,2.31,6.94-.43,2.1-2.68,4.8-5.54,5.67-11.38,3.48-44.54,10.26-53.16,1.51-29.54-29.99-55.28-62.57-78.68-97.42-4.03-5.99-4.57-11.23-.11-17.27,11.85-16.03,21.97-32.94,34.91-48.41,29.66-35.44,59.45-66.43,96.25-94.66,63.74-48.89,115.07-73.96,193.13-93.73,48.4-12.26,127.16-12.37,175.48,0,23.31,5.96,45.68,12.44,68.18,21.19,36.75,14.29,71,32.93,102.97,56,64.04,46.2,106.77,90.74,151.51,155.41,3.28,4.74,6.88,12.65,3.81,17.51-26.41,41.73-47.13,64.23-79.62,99.96-3.15,3.46-7.89,5.79-12.62,5.67-9.11-.24-44-1.77-46.76-10.7-1.01-3.26-.08-6.31,2.47-8.67l34.86-32.33c17.16-15.91,30.24-35,44.13-53.82,2.03-2.76,2.64-7.13.49-10.03-16.33-22.13-33.03-43.38-52.53-62.81-2.9-2.89-6.52-4.26-9.37-7.03l-28.3-27.53c-24.22-23.56-53.91-40.97-83.91-57.02Z"/>
  <path class="cls-2" d="M683.47,590.89c0,84.58-68.56,153.14-153.14,153.14s-153.14-68.56-153.14-153.14,68.56-153.14,153.14-153.14,153.14,68.56,153.14,153.14ZM638.91,590.84c0-59.94-48.59-108.53-108.53-108.53s-108.53,48.59-108.53,108.53,48.59,108.53,108.53,108.53,108.53-48.59,108.53-108.53Z"/>
  <path class="cls-1" d="M751.03,758.2c-14.54-3.23-29.77-4.43-44.24-2.25-18.18,2.73-35.65,7.82-52.58,14.51-14.74,5.83-26.77,14.54-41.02,21.52-32.65,15.99-68.78,22.33-105.25,17.59-17.47-2.27-35.08-5.62-50.58-13.47l-49.66-25.13c-22.64-11.46-72.12-21.3-98.48-12.64l-52.66,17.3c-11.51,3.78-26.31,8.01-37.82,2.43-8.91-4.32-26.67-32.25-19.21-33.16,11.62-1.41,24.26-.4,35.47-3.93l62.7-19.77c36.37-11.47,77.75-4.16,112.63,8.93,12.07,4.53,21.49,12.22,33.13,17.57,18.88,8.69,37.99,17.07,58.75,20.71,26.89,4.72,64.59,2.37,89.65-9.48l65.78-31.1c21.44-10.14,57.79-13.65,81.81-11s46.77,10.08,69.11,18.85c8.29,3.26,15.95,5.24,24.75,6.11l26.06,2.58c1.57.16,3.38,1.13,3.99,2.02.68.99,1.92,3.81.29,5.33-7.86,7.32-12.73,22.27-23.32,26.74-19.08,8.06-64.51-14.76-89.3-20.26Z"/>
  <path class="cls-1" d="M695.1,828.69c-12.91,3.75-24.8,6.62-36.32,12.43l-50.99,25.69c-36.3,18.29-118.96,18.33-153.96-.13l-37.06-19.55c-23.5-12.4-69.84-26.01-95.5-19.17l-34.09,9.09c-4.78,1.27-10.18,1.95-14.28-1.5-6.94-5.86-13.17-12.39-19.06-19.28-9.45-11.06,23.29-16.06,24.72-16.57l24.71-8.79c31.32-11.14,80.12.2,111.21,12.86,15.16,6.17,28.31,14.91,42.94,21.99,23.2,11.24,47.74,14.24,73.3,14.69,34.39.61,66.68-7.29,95.57-25.98,22.53-14.58,62.88-27.11,89.69-27.39,40.06-.43,50.92,5.73,86.19,18.29,3.45,1.23,6.21,4.17,7.65,7.19-7.06,8.37-13.9,16.14-22.15,23.05-3.5,2.94-8.25,2.75-12.49,1.63l-35.78-9.42c-14.25-3.75-29.09-.18-44.31.88Z"/>
  <path class="cls-1" d="M508.56,191.89c-.12-9.3.97-18.76-1.64-27.71,16.2-.17,31.53-1.44,47.56-.33,24.06,1.67,47.53,3.61,71.26,8.36,42.74,8.56,105.9,28.87,140.68,53.76l28.56,20.43c5.64,4.04,10.05-.79,15.44-3.23,20.54-9.29,44.02-1.22,57.16,17.03,8.36,11.61,10.73,27.42,5.51,40.95-1.52,3.95-5.6,8.02-3.25,12.31,6.06,11.04,18.3,23.9,25.84,35.24,7.02,10.56,6.87,9.3,9.83,14.53,9.37,16.59,18.44,33.03,25.79,50.93,11.24,27.35,19.26,55.64,25.03,84.46,1.52,7.61-.77,14.14-6.88,17.75-4.55,2.69-16.24,3.33-17.91-2.99l-16.13-61.12c-11.5-43.6-35.24-82.08-62.88-117.37-3.88-4.95-6.55-2.72-11.64-1.96-8.5,1.28-19.58,2.69-28.35.18-24.22-6.92-37.47-33.4-31.4-56.85.54-2.1,2.12-3.37,1.54-4.98-2.03-5.62-38.72-26.93-46.29-30.77-26.5-13.45-64.61-29.62-93.49-35.8-51.22-10.97-82.25-13.45-134.33-12.82Z"/>
  <path class="cls-7" d="M63.81,441.5c-3.17,4.32-15.77,4.44-19.23.8-6.98-7.37-3.56-19.25-.02-26.67s2.89-14.58,5.93-21.59l19.11-44.05c4.51-5.08,7.96-10.32,10.8-16.63,14.68-32.65,34.97-61,58.44-88,19.15-22.03,38.24-42.44,61.52-60.4,53.89-41.59,91.93-66.12,157.31-88.13,20.94-7.05,41.72-11.57,63.31-16.21,17.7-3.8,35.25-5.26,53.11-6.68,7.07-.57,12.75,4.16,14.52,9.95,2,6.57-.94,12.73-7.56,16.54-4.07,2.35-10.17,3.26-15.43,3.42-26.13.8-50.32,6.02-75.48,12.65-34.38,9.05-65.98,22.15-97.05,39.32-19.06,10.54-36.79,20.87-54.14,34.11-13.22,10.09-26.13,19.42-36.93,32.23-3.84,4.56-8.77,7.08-13.11,10.86-15.82,13.77-28.13,29.83-41.17,46.29-32.38,40.89-57.53,86.19-74.41,135.55-3.05,8.93-4.01,19.1-9.52,26.64Z"/>
  <path class="cls-1" d="M739.89,871.44c-14.5,8.98-27.91,18.76-43.3,26.6-26.21,13.35-52.09,25.6-79.38,36.79-43.81,17.95-68.62,15.46-114.95,15.21-24.75-3.5-47.05-9.76-69.8-19.81-29.1-12.85-57.06-26.62-85.22-41.37-9.67-5.06-17.75-11.53-26.6-17.44-1.31-.87-1.51-3.23-1.59-4.24-.4-4.96,35.84-5.38,41.74-5.55,14.18-.41,25.5,3.78,38.07,9.37,22.64,10.06,43.65,22.32,67.38,30.32,35.24,11.87,86.23,14.13,122.36,2.05,24.84-8.3,47.44-19.95,71.57-29.75,10.73-13.64,75.21-15.06,81.05-7.59.86,1.1.52,4.29-1.32,5.42Z"/>
  <path class="cls-7" d="M506.92,164.18c2.61,8.96,1.52,18.42,1.64,27.71-19.79,2.45-38.69,3.42-58.26,6.9-28.73,5.11-56.19,13.18-83.05,24.5s-66.73,34.93-89.51,54.51c-19.21,16.52-36.45,34.24-53.25,53.23-12.04,13.61-22.64,28.73-31.1,44.55-4.43,8.28-7.69,15.31-12.58,22.91-11.76,18.3-17.74,38.68-23.33,59.14-1.97,7.22-6.11,11.11-13.6,10.64-4.41-.28-8.99-.33-11.83-3.9-2.31-2.91-4.02-7.56-3.09-12.19,3.32-16.48,9.47-32.02,16.94-47.17,5.83-11.83,10.41-23.5,17.28-34.82,10.43-17.2,20.62-34.13,33.65-49.68,15.62-18.65,31.44-36.62,49.7-52.92,24.29-21.67,51.43-39.67,79.63-55.46,21.33-11.94,42.27-19.74,65.4-27.03,37.79-11.92,76.06-20.5,115.35-20.9Z"/>
  <path class="cls-6" d="M254.13,418.18c-3.85-4.32-4.47-12.44-1.74-17.2,10.99-19.2,25.31-34.73,40.39-50.6,12.35-13,24.58-24.36,39.67-34.25,15.54-10.18,30.94-19.93,48.09-27.49,31.99-14.11,61.84-24.14,96.54-28.19,7.74-.9,12.34,6.39,13.24,12.85s-3.85,13.4-11.07,15.13l-56.64,13.55c-33.8,8.09-98.34,49.48-121.23,79.86l-27.79,36.89c-4.03,5.36-14.35,5.18-19.46-.55Z"/>
  <path class="cls-5" d="M638.91,590.84c0,59.94-48.59,108.53-108.53,108.53s-108.53-48.59-108.53-108.53,48.59-108.53,108.53-108.53,108.53,48.59,108.53,108.53ZM583.79,582.37c-.31,9.46,23.19,6.97,25.16,3.7,5.32-8.82.1-20.99-4.47-29.3-5.11-9.29-8.68-18.58-16.59-25.67-13.15-11.79-30.09-18.63-47.5-21.65-2.59-.45-8.16.28-8.9,2.85-1.98,6.82-2.21,14.82.03,21.63,2.73,8.29,17.92-2.68,39.07,19.43,7.83,8.18,13.59,16.99,13.2,29.01Z"/>
  <path class="cls-3" d="M583.79,582.37c.39-12.02-5.37-20.83-13.2-29.01-21.15-22.11-36.34-11.14-39.07-19.43-2.24-6.81-2.01-14.81-.03-21.63.75-2.58,6.31-3.3,8.9-2.85,17.41,3.02,34.35,9.86,47.5,21.65,7.9,7.09,11.47,16.38,16.59,25.67,4.57,8.3,9.79,20.47,4.47,29.3-1.97,3.27-25.47,5.77-25.16-3.7Z"/>
</svg>